<?xml version="1.0" standalone="no"?><!DOCTYPE svg PUBLIC "-//W3C//DTD SVG 1.1//EN" "http://www.w3.org/Graphics/SVG/1.1/DTD/svg11.dtd"><svg t="1623830637197" class="icon" viewBox="0 0 1024 1024" version="1.1" xmlns="http://www.w3.org/2000/svg" p-id="3276" xmlns:xlink="http://www.w3.org/1999/xlink" width="200" height="200"><defs><style type="text/css"></style></defs><path d="M512 512m-512 0a512 512 0 1 0 1024 0 512 512 0 1 0-1024 0Z" fill="#4A72EF" opacity=".06" p-id="3277"></path><path d="M641.194667 317.62963a65.194667 65.194667 0 0 1 0 130.37037H382.805333a65.194667 65.194667 0 0 1 0-130.37037h258.370371z m0-42.666667H382.805333a107.861333 107.861333 0 1 0 0 215.703704h258.370371a107.861333 107.861333 0 1 0 0-215.703704z" fill="#4A72EF" p-id="3278"></path><path d="M382.824296 344.89837a37.925926 37.925926 0 1 0 0 75.832889 37.925926 37.925926 0 0 0 0-75.851852z m258.370371 231.10163a65.194667 65.194667 0 0 1 0 130.37037H382.805333a65.194667 65.194667 0 0 1 0-130.37037h258.370371z m0-42.666667H382.805333a107.861333 107.861333 0 1 0 0 215.703704h258.370371a107.861333 107.861333 0 1 0 0-215.703704z" fill="#4A72EF" p-id="3279"></path><path d="M641.194667 603.268741a37.925926 37.925926 0 1 0 0 75.832889 37.925926 37.925926 0 0 0 0-75.851852z" fill="#4A72EF" p-id="3280"></path></svg>