<?xml version="1.0" standalone="no"?><!DOCTYPE svg PUBLIC "-//W3C//DTD SVG 1.1//EN" "http://www.w3.org/Graphics/SVG/1.1/DTD/svg11.dtd"><svg t="1623830715794" class="icon" viewBox="0 0 1024 1024" version="1.1" xmlns="http://www.w3.org/2000/svg" p-id="4302" xmlns:xlink="http://www.w3.org/1999/xlink" width="200" height="200"><defs><style type="text/css"></style></defs><path d="M512 512m-512 0a512 512 0 1 0 1024 0 512 512 0 1 0-1024 0Z" fill="#FD9A3F" opacity=".06" p-id="4303"></path><path d="M699.335111 572.055704c2.768593-5.30963 5.44237-10.676148 7.964445-15.947852-0.341333 7.168-0.739556 15.416889-0.739556 21.31437v26.737778h-27.306667l20.005926-31.990519 0.075852-0.113777z m53.684148 34.000592v-1.896296h-16.687407V521.481481H699.998815l-0.568889 0.910223-52.337778 84.954074-0.265481 0.455111V629.191111h59.733333V665.6H736.331852V629.191111h16.687407V606.056296z" fill="#FD9A3F" p-id="4304"></path><path d="M500.299852 298.932148c84.631704 0.113778 158.075259 58.785185 177.379555 141.748148 36.295111 2.446222 73.40563 8.533333 102.513778 30.340741 43.671704 32.730074 74.638222 82.868148 73.329778 136.533333l-0.18963 4.816593C852.878222 679.386074 808.030815 758.518519 712.305778 758.518519H302.08C218.074074 758.518519 176.545185 686.26963 176.545185 625.777778c0-79.473778 48.052148-142.222222 125.515852-155.268741 30.966519-106.837333 105.680593-169.453037 193.365333-171.538963l4.854519-0.037926z m-0.815408 46.459259c-66.977185 0-125.62963 47.369481-152.082963 136.229926-3.792593 12.724148-13.103407 23.267556-25.713777 27.458371L284.444444 521.481481c-47.407407 17.426963-61.989926 62.312296-59.847111 104.296297 2.123852 41.984 28.216889 87.286519 77.463704 87.286518h413.487407c33.488593 0 52.280889-19.949037 64.360297-36.750222a103.784296 103.784296 0 0 0 19.493926-57.495704l0.056889-4.22874a121.059556 121.059556 0 0 0-73.519408-118.556445l-92.349629-27.249778c-6.731852-69.632-64.606815-122.898963-134.106075-123.392zM425.547852 512l4.114963 0.056889a107.121778 107.121778 0 0 1 37.906963 5.878518v34.417778a65.536 65.536 0 0 0-30.966519-9.481481l-4.096-0.056889a45.643852 45.643852 0 0 0-32.521481 11.757037l-2.370371 2.313481a53.134222 53.134222 0 0 0-13.349926 34.569482l0.056889 3.508148c-0.606815 12.136296 3.015111 24.120889 10.258963 33.886815l2.275556 2.806518a43.538963 43.538963 0 0 0 30.568296 13.729185l3.128889-0.037925a70.200889 70.200889 0 0 0 37.072593-10.069334l-0.094815 32.540445a98.360889 98.360889 0 0 1-38.836148 8.476444l-5.006223-0.075852a72.476444 72.476444 0 0 1-52.754962-18.773333l-2.825482-2.692741a79.985778 79.985778 0 0 1-20.328296-53.020444l0.075852-4.228741a85.636741 85.636741 0 0 1 19.949037-58.595556l2.806518-3.166814A78.222222 78.222222 0 0 1 425.528889 512z m103.329185 2.74963v63.336296h63.582815v-63.336296h34.664296l0.037926 158.701037h-34.683259v-64.644741H528.877037v64.644741h-34.569481v-158.701037h34.569481z m113.739852-207.834074c64.853333-90.074074 139.377778-11.320889 133.613037 30.01837 60.871111-14.639407 86.433185 76.439704 31.800889 97.488593-26.491259-28.804741-36.238222-30.189037-73.671111-30.245926h-8.154074c-4.28563 0-8.912593-0.018963-13.899852-0.075852l0.189629-4.437334c0.379259-61.364148-64.796444-90.472296-69.632-92.596148l-0.246518-0.13274z" fill="#FD9A3F" p-id="4305"></path></svg>