<?xml version="1.0" standalone="no"?><!DOCTYPE svg PUBLIC "-//W3C//DTD SVG 1.1//EN" "http://www.w3.org/Graphics/SVG/1.1/DTD/svg11.dtd"><svg t="1623830714050" class="icon" viewBox="0 0 1024 1024" version="1.1" xmlns="http://www.w3.org/2000/svg" p-id="4174" xmlns:xlink="http://www.w3.org/1999/xlink" width="200" height="200"><defs><style type="text/css"></style></defs><path d="M512 512m-512 0a512 512 0 1 0 1024 0 512 512 0 1 0-1024 0Z" fill="#4A72EF" opacity=".06" p-id="4175"></path><path d="M427.235556 500.773926a100.693333 100.693333 0 0 1-65.327408-22.565926 49.796741 49.796741 0 0 1-18.962963-46.535111c1.137778-8.135111 3.982222-15.928889 8.324741-22.888296l18.052741 12.117333v-0.075852a30.378667 30.378667 0 0 0 6.637037 40.77037 83.721481 83.721481 0 0 0 63.715555 16.535704 10.808889 10.808889 0 0 1 12.705185 8.609185 10.903704 10.903704 0 0 1-8.609185 12.743111H443.733333a94.094222 94.094222 0 0 1-16.459852 1.289482z m203.851851-189.345185a7.111111 7.111111 0 0 1-5.821629-7.755852c0.094815-1.744593 0.151704-3.508148 0.151703-5.290667 0-60.055704-52.299852-108.73363-116.773925-108.733629-1.896296 0-3.830519 0-5.745778 0.113777a17.976889 17.976889 0 0 0-6.352593 0.455111c-58.785185 5.650963-104.63763 51.920593-104.637629 108.145778 0 5.518222 0.455111 11.036444 1.327407 16.478815a7.319704 7.319704 0 0 1-5.176889 8.476445c-67.697778 14.165333-117.229037 60.017778-117.229037 114.403555 0 65.706667 72.286815 118.97363 161.46963 118.97363h0.094814a7.281778 7.281778 0 0 1 6.371556 10.126222 438.784 438.784 0 0 1-207.208296 234.666667 7.452444 7.452444 0 0 0 2.806518 13.918814 6.428444 6.428444 0 0 0 1.991111-0.303407 596.005926 596.005926 0 0 0 225.773037-122.235259c3.413333-2.977185 6.731852-6.011259 10.012445-9.026371a12.515556 12.515556 0 0 0 3.678815-12.325926 126.900148 126.900148 0 0 1-3.96326-33.450666 1.915259 1.915259 0 0 0-3.280592-1.365334c-14.980741 15.530667-30.947556 30.094222-47.786667 43.614815a469.560889 469.560889 0 0 0 52.868741-99.877926 43.463111 43.463111 0 0 0-5.025185-39.954963 42.609778 42.609778 0 0 0-34.853926-18.261333h-0.094815a174.26963 174.26963 0 0 1-51.617185-7.585185 135.945481 135.945481 0 0 1-40.258371-19.835259c-12.041481-8.836741-32.237037-27.629037-32.237037-54.234074a71.642074 71.642074 0 0 1 19.550815-48.962371c16.213333-15.568593 41.756444-23.457185 68.077037-28.975407a42.647704 42.647704 0 0 0 26.510222-17.863111 42.856296 42.856296 0 0 0 6.693926-31.326815 64.929185 64.929185 0 0 1-0.872296-10.42963 67.337481 67.337481 0 0 1 19.816296-47.160889 82.811259 82.811259 0 0 1 51.427556-23.988148l2.142815-0.398222 2.351407 0.094815c1.422222-0.056889 2.787556-0.094815 4.058074-0.094815 44.013037 0 79.834074 32.104296 79.834074 71.585185 0 1.042963 0 2.142815-0.094815 3.280593a43.064889 43.064889 0 0 0 9.746963 29.866666c6.902519 8.343704 16.687407 13.805037 27.439408 15.22726 30.056296 3.697778 51.01037 10.42963 64 20.347259 8.779852 6.731852 18.868148 18.166519 18.868148 46.91437a75.396741 75.396741 0 0 1-6.826667 34.133334 45.966222 45.966222 0 0 1-16.70637 18.166518c-16.440889 10.619259-42.287407 16.023704-76.8 16.023704-2.88237 0-5.859556-0.094815-8.874667-0.303408a40.656593 40.656593 0 0 0-40.827259 21.617778c-2.085926 4.171852-4.209778 8.305778-6.390518 12.439704a4.873481 4.873481 0 0 0 2.522074 6.788741 4.835556 4.835556 0 0 0 2.69274 0.227555c9.462519-1.668741 19.13363-1.896296 28.672-0.644741a4.79763 4.79763 0 0 0 4.930371-2.616888 6.637037 6.637037 0 0 1 6.390518-3.811556c3.716741 0.227556 7.452444 0.360296 11.245037 0.360296 75.927704 0 137.481481-23.646815 137.481482-105.434074 0-72.590222-49.98637-95.952593-115.427556-104.068741l-0.094815-0.13274z m-60.397037 414.151111a60.871111 60.871111 0 0 0 48.374519-22.755556l-15.985778-19.190518a41.965037 41.965037 0 0 1-31.364741 15.246222c-23.969185 0-39.518815-20.252444-39.518814-53.835852 0-33.185185 17.21837-53.191111 40.163555-53.191111a38.72237 38.72237 0 0 1 27.875556 12.932741l15.985777-19.607704a61.458963 61.458963 0 0 0-44.468148-19.816296c-38.324148 0-70.504296 29.828741-70.504296 80.744296-0.094815 51.52237 31.04237 79.454815 69.366519 79.454815h0.075851z m122.728297 0c40.163556 0 67.849481-30.663111 67.849481-80.744296 0-50.062222-27.685926-79.492741-67.849481-79.492741s-67.849481 29.202963-67.849482 79.492741c-0.037926 50.062222 27.629037 80.744296 67.792593 80.744296h0.056889z m0-26.699852c-22.565926 0-36.882963-21.086815-36.882963-54.044444 0-33.185185 14.336-52.982519 36.882963-52.982519s36.882963 19.816296 36.882963 52.982519c-0.037926 32.95763-14.392889 54.044444-36.939852 54.044444h0.056889z" fill="#4A72EF" p-id="4176"></path></svg>