<?xml version="1.0" standalone="no"?><!DOCTYPE svg PUBLIC "-//W3C//DTD SVG 1.1//EN" "http://www.w3.org/Graphics/SVG/1.1/DTD/svg11.dtd"><svg t="1623830711988" class="icon" viewBox="0 0 1024 1024" version="1.1" xmlns="http://www.w3.org/2000/svg" p-id="4046" xmlns:xlink="http://www.w3.org/1999/xlink" width="200" height="200"><defs><style type="text/css"></style></defs><path d="M512 512m-512 0a512 512 0 1 0 1024 0 512 512 0 1 0-1024 0Z" fill="#FD9A3F" opacity=".06" p-id="4047"></path><path d="M427.235556 500.773926a100.693333 100.693333 0 0 1-65.327408-22.565926 49.815704 49.815704 0 0 1-18.962963-46.516148c1.137778-8.154074 3.982222-15.928889 8.324741-22.907259l18.052741 12.117333v-0.075852a30.378667 30.378667 0 0 0 6.637037 40.789333 83.664593 83.664593 0 0 0 63.715555 16.516741 10.808889 10.808889 0 0 1 12.705185 8.628148 10.903704 10.903704 0 0 1-8.609185 12.724148H443.733333c-5.44237 0.910222-10.94163 1.34637-16.459852 1.289482z m203.851851-189.345185a7.111111 7.111111 0 0 1-5.821629-7.755852c0.094815-1.72563 0.151704-3.508148 0.151703-5.271704 0-60.074667-52.299852-108.752593-116.773925-108.752592-1.896296 0-3.830519 0-5.745778 0.113777a17.901037 17.901037 0 0 0-6.352593 0.455111c-58.785185 5.650963-104.63763 51.920593-104.637629 108.145778 0 5.518222 0.455111 11.036444 1.327407 16.478815a7.319704 7.319704 0 0 1-5.176889 8.476445c-67.697778 14.165333-117.229037 60.017778-117.229037 114.422518 0 65.706667 72.286815 118.954667 161.46963 118.954667h0.094814a7.262815 7.262815 0 0 1 6.371556 10.126222 438.784 438.784 0 0 1-207.208296 234.666667 7.452444 7.452444 0 0 0 2.806518 13.937777 6.542222 6.542222 0 0 0 1.991111-0.32237 596.005926 596.005926 0 0 0 225.773037-122.235259c3.413333-2.977185 6.731852-6.011259 10.012445-9.026371a12.515556 12.515556 0 0 0 3.678815-12.325926 126.938074 126.938074 0 0 1-3.96326-33.450666 1.934222 1.934222 0 0 0-1.175703-1.801482 1.896296 1.896296 0 0 0-2.104889 0.436148c-14.980741 15.54963-30.947556 30.094222-47.786667 43.614815a469.598815 469.598815 0 0 0 52.868741-99.877926 43.463111 43.463111 0 0 0-5.025185-39.936 42.609778 42.609778 0 0 0-34.853926-18.261333h-0.094815a174.26963 174.26963 0 0 1-51.617185-7.604148 135.983407 135.983407 0 0 1-40.258371-19.816296c-12.041481-8.855704-32.237037-27.648-32.237037-54.234075a71.642074 71.642074 0 0 1 19.550815-48.981333c16.213333-15.54963 41.756444-23.457185 68.077037-28.956444a42.628741 42.628741 0 0 0 26.510222-17.882074 42.856296 42.856296 0 0 0 6.693926-31.326815 64.929185 64.929185 0 0 1-0.872296-10.42963 67.337481 67.337481 0 0 1 19.816296-47.141926 82.811259 82.811259 0 0 1 51.427556-23.988148l2.142815-0.417185 2.351407 0.113778c1.422222-0.075852 2.787556-0.113778 4.058074-0.113778 44.013037 0 79.834074 32.123259 79.834074 71.585185 0 1.042963 0 2.161778-0.094815 3.280593a43.064889 43.064889 0 0 0 9.746963 29.866666c6.902519 8.362667 16.687407 13.805037 27.439408 15.22726 30.056296 3.697778 51.01037 10.42963 64 20.347259 8.779852 6.731852 18.868148 18.166519 18.868148 46.933333a75.377778 75.377778 0 0 1-6.826667 34.114371 45.947259 45.947259 0 0 1-16.70637 18.166518c-16.440889 10.619259-42.287407 16.023704-76.8 16.023704-2.88237 0-5.859556-0.094815-8.874667-0.303408a40.656593 40.656593 0 0 0-40.827259 21.617778c-2.085926 4.171852-4.209778 8.324741-6.390518 12.439704a4.873481 4.873481 0 0 0 2.522074 6.788741 4.835556 4.835556 0 0 0 2.69274 0.246518c9.462519-1.706667 19.13363-1.896296 28.672-0.663704a4.79763 4.79763 0 0 0 4.930371-2.597925 6.693926 6.693926 0 0 1 6.390518-3.830519c3.716741 0.227556 7.452444 0.360296 11.245037 0.360296 75.927704 0 137.481481-23.627852 137.481482-105.434074 0-72.590222-49.98637-95.952593-115.427556-104.068741l-0.094815-0.13274z m-60.397037 414.151111a60.871111 60.871111 0 0 0 48.374519-22.736593l-15.985778-19.209481a41.946074 41.946074 0 0 1-31.364741 15.246222c-23.969185 0-39.518815-20.252444-39.518814-53.835852 0-33.185185 17.21837-53.191111 40.163555-53.191111a38.798222 38.798222 0 0 1 27.875556 12.932741l15.985777-19.607704a61.477926 61.477926 0 0 0-44.468148-19.816296c-38.324148 0-70.504296 29.828741-70.504296 80.744296-0.094815 51.52237 31.04237 79.473778 69.366519 79.473778h0.075851z m122.728297 0c40.163556 0 67.849481-30.663111 67.849481-80.744296 0-50.062222-27.685926-79.492741-67.849481-79.492741s-67.849481 29.202963-67.849482 79.492741c-0.037926 50.081185 27.629037 80.744296 67.792593 80.744296h0.056889z m0-26.699852c-22.565926 0-36.882963-21.086815-36.882963-54.044444 0-33.185185 14.336-52.982519 36.882963-52.982519s36.882963 19.816296 36.882963 52.982519c-0.037926 32.95763-14.392889 54.044444-36.939852 54.044444h0.056889z m77.44474 23.779556h101.641482v-25.865482h-32.995556c-6.959407 0-17.009778 0.83437-24.576 1.668741 27.648-27.553185 50.403556-57.590519 50.403556-85.522963a45.056 45.056 0 0 0-13.141333-34.626371 44.790519 44.790519 0 0 0-34.607408-12.951703 61.022815 61.022815 0 0 0-48.165926 23.381333l16.402963 16.687408a39.139556 39.139556 0 0 1 27.875556-15.853038 21.902222 21.902222 0 0 1 21.978074 15.473778c0.948148 3.090963 1.21363 6.352593 0.758518 9.557334 0 23.779556-24.38637 52.773926-65.573926 90.339555v17.730371-0.018963z" fill="#FD9A3F" p-id="4048"></path></svg>