<?xml version="1.0" standalone="no"?><!DOCTYPE svg PUBLIC "-//W3C//DTD SVG 1.1//EN" "http://www.w3.org/Graphics/SVG/1.1/DTD/svg11.dtd"><svg t="1623830623116" class="icon" viewBox="0 0 1024 1024" version="1.1" xmlns="http://www.w3.org/2000/svg" p-id="2764" xmlns:xlink="http://www.w3.org/1999/xlink" width="200" height="200"><defs><style type="text/css"></style></defs><path d="M512 512m-512 0a512 512 0 1 0 1024 0 512 512 0 1 0-1024 0Z" fill="#4A72EF" opacity=".06" p-id="2765"></path><path d="M459.851852 208.592593a23.703704 23.703704 0 1 0 0 47.407407h113.777778a23.703704 23.703704 0 1 0 0-47.407407h-113.777778z m-132.740741 322.37037c0-102.115556 82.773333-184.888889 184.888889-184.888889s184.888889 82.773333 184.888889 184.888889a23.703704 23.703704 0 1 0 47.407407 0c0-128.284444-103.992889-232.296296-232.296296-232.296296-128.284444 0-232.296296 104.011852-232.296296 232.296296 0 128.303407 104.011852 232.296296 232.296296 232.296296a23.703704 23.703704 0 1 0 0-47.407407c-102.115556 0-184.888889-82.773333-184.888889-184.888889zM568.888889 606.814815a18.962963 18.962963 0 0 1 18.962963-18.962963h95.857778a18.962963 18.962963 0 0 1 15.966814 29.202963l-28.122074 43.899259c25.144889 8.817778 41.320296 28.216889 46.895408 50.631111 7.205926 28.956444-3.944296 63.601778-35.726222 77.767111-28.539259 12.743111-52.54637 6.33363-68.778667-3.546074a85.371259 85.371259 0 0 1-23.74163-21.674666l-0.417185-0.568889-0.132741-0.227556-0.056889-0.075852-0.037925-0.037926v-0.018963l15.739259-10.619259-15.739259 10.600296a18.962963 18.962963 0 0 1 31.36474-21.295407l0.037926 0.037926 0.474074 0.644741a47.407407 47.407407 0 0 0 12.212148 10.846814c7.736889 4.702815 18.583704 8.021333 33.621334 1.308445 11.794963-5.271704 18.052741-19.228444 14.373926-33.98163-3.242667-13.084444-14.980741-26.927407-41.509926-26.927407a18.962963 18.962963 0 0 1-15.966815-29.202963L649.045333 625.777778h34.664297v-18.962963l-15.966815-10.24-18.697482 29.202963H587.851852a18.962963 18.962963 0 0 1-18.962963-18.962963z m52.110222 135.205926l-15.189333 10.24 15.189333-10.24zM535.703704 426.666667a23.703704 23.703704 0 1 0-47.407408 0v94.814814a23.703704 23.703704 0 1 0 47.407408 0v-94.814814z" fill="#4A72EF" p-id="2766"></path></svg>