<?xml version="1.0" standalone="no"?><!DOCTYPE svg PUBLIC "-//W3C//DTD SVG 1.1//EN" "http://www.w3.org/Graphics/SVG/1.1/DTD/svg11.dtd"><svg t="1623830706389" class="icon" viewBox="0 0 1024 1024" version="1.1" xmlns="http://www.w3.org/2000/svg" p-id="3790" xmlns:xlink="http://www.w3.org/1999/xlink" width="200" height="200"><defs><style type="text/css"></style></defs><path d="M512 512m-512 0a512 512 0 1 0 1024 0 512 512 0 1 0-1024 0Z" fill="#F24750" opacity=".06" p-id="3791"></path><path d="M706.578963 598.319407a70.921481 70.921481 0 0 0-33.185185 8.192l-48.507259-30.397629a119.125333 119.125333 0 0 0-64.758519-138.42963v-64.360296a89.92237 89.92237 0 0 0 39.632593-74.562371c0-49.796741-40.580741-90.168889-90.642963-90.168888-50.081185 0-90.661926 40.372148-90.661926 90.168888a89.694815 89.694815 0 0 0 36.105481 72.021334v68.683852a119.049481 119.049481 0 0 0-60.22637 139.984592l-43.425185 27.192889a71.054222 71.054222 0 0 0-33.431704-8.324741A70.731852 70.731852 0 0 0 246.518519 668.918519a70.731852 70.731852 0 0 0 70.959407 70.580148 70.731852 70.731852 0 0 0 70.959407-70.580148c0-12.762074-3.413333-24.708741-9.367703-35.024593l31.990518-20.005926a119.732148 119.732148 0 0 0 98.038519 50.744889c41.718519 0 78.487704-21.238519 99.915852-53.475556l36.029629 22.565926c-6.011259 10.372741-9.481481 22.376296-9.481481 35.252148A70.731852 70.731852 0 0 0 706.522074 739.555556 70.731852 70.731852 0 0 0 777.481481 668.975407a70.731852 70.731852 0 0 0-70.902518-70.656z m-213.82637-210.868148a93.013333 93.013333 0 0 0 29.127111 0.606815v39.063704a129.573926 129.573926 0 0 0-12.781037-0.663704c-5.537185 0-11.036444 0.360296-16.346074 1.137778v-40.12563z m74.069333 215.381334a81.199407 81.199407 0 0 1-57.647407 23.741629 81.199407 81.199407 0 0 1-57.647408-23.741629 80.346074 80.346074 0 0 1-23.893333-57.344c0-21.674667 8.476444-42.021926 23.893333-57.344a81.199407 81.199407 0 0 1 57.647408-23.74163c21.769481 0 42.249481 8.419556 57.647407 23.74163a80.327111 80.327111 0 0 1 23.87437 57.344 80.346074 80.346074 0 0 1-23.893333 57.344z" fill="#F24750" p-id="3792"></path></svg>