<?xml version="1.0" standalone="no"?><!DOCTYPE svg PUBLIC "-//W3C//DTD SVG 1.1//EN" "http://www.w3.org/Graphics/SVG/1.1/DTD/svg11.dtd"><svg t="1623830702421" class="icon" viewBox="0 0 1024 1024" version="1.1" xmlns="http://www.w3.org/2000/svg" p-id="3662" xmlns:xlink="http://www.w3.org/1999/xlink" width="200" height="200"><defs><style type="text/css"></style></defs><path d="M0 512a512 512 0 1 0 1024 0 512 512 0 0 0-1024 0z" fill="#666666" opacity=".06" p-id="3663"></path><path d="M250.083556 632.888889a20.138667 20.138667 0 1 1 0-40.296296h60.434963v-60.453926h-60.453926a20.138667 20.138667 0 1 1 0-40.296297h60.453926V431.407407h-60.453926a20.138667 20.138667 0 1 1 0-40.296296h60.453926a80.592593 80.592593 0 0 1 80.592592-80.592592v-60.453926a20.138667 20.138667 0 1 1 40.296296 0v60.453926h60.453926v-60.453926a20.138667 20.138667 0 1 1 40.296297 0v60.453926h60.397037l0.037926-60.453926a20.138667 20.138667 0 1 1 40.296296 0l-0.037926 60.453926h0.037926a80.592593 80.592593 0 0 1 80.592592 80.592592h60.453926a20.138667 20.138667 0 0 1 3.602963 39.973926l-3.602963 0.32237h-60.453926v60.453926h60.453926a20.138667 20.138667 0 0 1 3.602963 39.973926l-3.602963 0.322371h-60.453926v60.434963h60.453926a20.138667 20.138667 0 0 1 3.602963 39.973926l-3.602963 0.32237h-60.453926a80.592593 80.592593 0 0 1-80.592592 80.592592h-0.037926l0.037926 60.453926a20.138667 20.138667 0 0 1-39.973926 3.602963l-0.32237-3.602963-0.037926-60.453926h-60.416v60.453926a20.138667 20.138667 0 0 1-39.973926 3.602963l-0.322371-3.602963v-60.453926H431.407407v60.453926a20.138667 20.138667 0 0 1-39.973926 3.602963l-0.32237-3.602963v-60.453926a80.592593 80.592593 0 0 1-80.592592-80.592592h-60.453926zM632.869926 350.814815h-241.777778a40.296296 40.296296 0 0 0-40.296296 40.296296v241.777778a40.296296 40.296296 0 0 0 40.296296 40.296296h241.777778a40.296296 40.296296 0 0 0 40.296296-40.296296v-241.777778a40.296296 40.296296 0 0 0-40.296296-40.296296z" fill="#666666" p-id="3664"></path></svg>