<?xml version="1.0" standalone="no"?><!DOCTYPE svg PUBLIC "-//W3C//DTD SVG 1.1//EN" "http://www.w3.org/Graphics/SVG/1.1/DTD/svg11.dtd"><svg t="1623830627228" class="icon" viewBox="0 0 1024 1024" version="1.1" xmlns="http://www.w3.org/2000/svg" p-id="2892" xmlns:xlink="http://www.w3.org/1999/xlink" width="200" height="200"><defs><style type="text/css"></style></defs><path d="M512 512m-512 0a512 512 0 1 0 1024 0 512 512 0 1 0-1024 0Z" fill="#4A72EF" opacity=".06" p-id="2893"></path><path d="M578.673778 301.283556c0-34.152296 61.781333-92.690963 61.781333-92.690963s61.781333 58.576593 61.781333 92.690963a61.781333 61.781333 0 0 1-123.562666 0z m20.574815-0.056889a41.206519 41.206519 0 0 0 82.413037 0c0-22.755556-41.206519-61.76237-41.206519-61.762371s-41.206519 39.006815-41.206518 61.762371zM303.407407 618.856296c0-98.095407 175.028148-296.030815 175.028149-296.030815s175.028148 197.973333 175.028148 296.030815c0 98.057481-78.354963 177.588148-175.028148 177.588148-96.673185 0-175.028148-79.473778-175.028149-177.588148z m30.90963-0.189629c0 81.161481 64.512 146.906074 144.118519 146.906074 79.625481 0 144.175407-65.801481 144.118518-146.906074 0-81.142519-144.118519-254.634667-144.118518-254.634667s-144.118519 173.511111-144.118519 254.634667z m10.296889 3.659852c0 73.40563 59.922963 132.93037 133.82163 132.93037 73.91763 0 133.840593-59.524741 133.840592-132.93037 0-36.977778-17.578667-27.477333-43.273481-13.577482-25.315556 13.691259-58.519704 31.630222-90.567111 13.577482-64.284444-36.238222-133.82163-73.386667-133.82163 0z" fill="#4A72EF" p-id="2894"></path></svg>