<?xml version="1.0" standalone="no"?><!DOCTYPE svg PUBLIC "-//W3C//DTD SVG 1.1//EN" "http://www.w3.org/Graphics/SVG/1.1/DTD/svg11.dtd"><svg t="1623830630824" class="icon" viewBox="0 0 1024 1024" version="1.1" xmlns="http://www.w3.org/2000/svg" p-id="3020" xmlns:xlink="http://www.w3.org/1999/xlink" width="200" height="200"><defs><style type="text/css"></style></defs><path d="M512 512m-512 0a512 512 0 1 0 1024 0 512 512 0 1 0-1024 0Z" fill="#FD9A3F" opacity=".06" p-id="3021"></path><path d="M485.394963 280.76563c0-8.609185 6.542222-15.284148 14.980741-15.284149 134.883556 0 244.584296 111.881481 244.584296 249.457778a14.942815 14.942815 0 0 1-14.980741 15.303111 14.942815 14.942815 0 0 1-14.98074-15.284148c0-120.794074-96.199111-218.908444-214.622815-218.908444a14.942815 14.942815 0 0 1-14.980741-15.284148z m-98.607407 140.060444a15.322074 15.322074 0 0 1-10.61926-4.456296l-40.353185-41.908148c-6.011259-5.878519-5.783704-15.265185 0-21.428149a14.487704 14.487704 0 0 1 21.010963 0l40.580741 41.908149a15.17037 15.17037 0 0 1-10.619259 25.884444zM599.988148 625.398519a14.468741 14.468741 0 0 1 20.992 0l40.846222 41.889185a15.17037 15.17037 0 0 1-10.619259 25.865481 15.322074 15.322074 0 0 1-10.619259-4.456296L599.988148 646.826667a15.17037 15.17037 0 0 1 0-21.428148z m-118.480592 58.917925c0-8.609185 6.542222-15.284148 14.98074-15.284148 8.495407 0 14.980741 6.674963 14.980741 15.284148l-0.227556 58.917926a14.942815 14.942815 0 0 1-14.98074 15.284149 14.942815 14.942815 0 0 1-14.980741-15.284149l0.227556-58.917926z m18.868148-359.917037a14.942815 14.942815 0 0 0-14.980741 15.284149c0 8.609185 6.542222 15.284148 14.980741 15.284148 86.281481 0 156.823704 71.49037 156.823703 159.971555 0 8.609185 6.561185 15.303111 14.999704 15.303111 8.438519 0 14.980741-6.693926 14.980741-15.303111-0.455111-105.244444-84.062815-190.539852-186.785185-190.539852zM353.46963 521.102222a14.942815 14.942815 0 0 0-14.980741-15.284148l-58.007704-0.246518a14.942815 14.942815 0 0 0-14.980741 15.284148c0 8.609185 6.542222 15.303111 14.980741 15.303111l57.780148 0.227555c8.438519 0 15.208296-6.618074 15.208297-15.284148z m20.783407 103.822222l-41.073778 41.415112a15.17037 15.17037 0 0 0 10.61926 25.865481c3.887407 0 7.49037-1.498074 10.619259-4.456296l41.073778-41.396148a15.17037 15.17037 0 0 0 0-21.428149 14.848 14.848 0 0 0-21.238519 0z m124.662519-234.192592c-70.087111 0-127.393185 58.462815-127.393186 129.953185 0 71.49037 57.306074 129.934222 127.393186 129.934222 70.106074 0 127.393185-58.424889 127.393185-129.934222 0-71.793778-57.287111-129.934222-127.393185-129.934222z" fill="#F39745" p-id="3022"></path></svg>