<?xml version="1.0" standalone="no"?><!DOCTYPE svg PUBLIC "-//W3C//DTD SVG 1.1//EN" "http://www.w3.org/Graphics/SVG/1.1/DTD/svg11.dtd"><svg t="1623830640627" class="icon" viewBox="0 0 1024 1024" version="1.1" xmlns="http://www.w3.org/2000/svg" p-id="3406" xmlns:xlink="http://www.w3.org/1999/xlink" width="200" height="200"><defs><style type="text/css"></style></defs><path d="M512 512m-512 0a512 512 0 1 0 1024 0 512 512 0 1 0-1024 0Z" fill="#02B156" opacity=".06" p-id="3407"></path><path d="M725.295407 401.540741a28.103111 28.103111 0 0 0-39.253333-7.964445l-63.146667 41.813334-69.101037-92.16a2.218667 2.218667 0 0 0-1.137777-1.137778 14.032593 14.032593 0 0 0-3.413334-3.697778 26.794667 26.794667 0 0 0-5.12-3.413333 2.161778 2.161778 0 0 0-1.441185-0.568889 17.180444 17.180444 0 0 0-5.385481-1.706667 4.020148 4.020148 0 0 0-1.706667-0.568889c-1.422222-0.284444-3.128889-0.284444-4.551111-0.284444-3.697778 0-7.111111 0.568889-10.524445 2.010074l-142.203259 56.888889a28.444444 28.444444 0 0 0-16.497778 17.332148l-28.444444 85.333333a28.747852 28.747852 0 0 0 17.92 36.105482c3.147852 0.853333 6.257778 1.422222 9.102222 1.422222 11.946667 0 23.04-7.395556 27.022222-19.342222l24.177778-72.817778 83.057778-33.261037-19.342222 115.181037-139.093334 222.682074a28.520296 28.520296 0 0 0 9.102223 39.253333c4.551111 2.844444 9.974519 4.266667 15.075555 4.266667 9.386667 0 18.773333-4.835556 24.177778-13.368889L514.825481 565.096296l105.813334 35.271111-81.351111 81.047704a28.672 28.672 0 0 0 0 40.391111 28.653037 28.653037 0 0 0 40.391111 0l113.758815-113.777778c6.826667-7.111111 9.671111-17.066667 7.395555-26.737777a28.065185 28.065185 0 0 0-18.488889-20.461037l-147.607703-49.189926 13.349926-81.066667 45.511111 60.586667a28.254815 28.254815 0 0 0 38.4 6.542222l85.333333-56.888889c13.084444-8.533333 16.763259-26.453333 7.964444-39.253333zM521.576296 274.981926a37.888 37.888 0 1 0 75.776 0 37.888 37.888 0 0 0-75.776 0z" fill="#02B156" p-id="3408"></path></svg>