<?xml version="1.0" standalone="no"?><!DOCTYPE svg PUBLIC "-//W3C//DTD SVG 1.1//EN" "http://www.w3.org/Graphics/SVG/1.1/DTD/svg11.dtd"><svg t="1623830699079" class="icon" viewBox="0 0 1024 1024" version="1.1" xmlns="http://www.w3.org/2000/svg" p-id="3534" xmlns:xlink="http://www.w3.org/1999/xlink" width="200" height="200"><defs><style type="text/css"></style></defs><path d="M512 512m-512 0a512 512 0 1 0 1024 0 512 512 0 1 0-1024 0Z" fill="#4A72EF" opacity=".06" p-id="3535"></path><path d="M582.997333 355.574519v96.483555a58.424889 58.424889 0 0 1 54.746074-28.690963 56.869926 56.869926 0 0 1 42.249482 15.132445c11.093333 13.691259 16.440889 31.194074 14.848 48.753777v166.096593h-57.609482v-154.889482a38.58963 38.58963 0 0 0-5.745777-24.500148 23.438222 23.438222 0 0 0-18.773334-6.78874 30.245926 30.245926 0 0 0-30.492444 37.034666v149.143704H524.325926V355.555556h58.671407z m-167.405037 0c13.293037-0.379259 26.510222 2.275556 38.58963 7.831703a71.073185 71.073185 0 0 1 26.074074 20.328297c6.523259 8.533333 11.226074 18.280296 13.824 28.690962 2.730667 10.56237 4.133926 21.428148 4.171852 32.331852a106.913185 106.913185 0 0 1-6.769778 40.144593 72.741926 72.741926 0 0 1-19.304296 27.894518 80.023704 80.023704 0 0 1-29.714963 16.175408 130.37037 130.37037 0 0 1-38.874074 5.480296h-33.090371v118.897778h-59.979851V355.555556h105.073777z m-18.24237 134.807703a39.632593 39.632593 0 0 0 28.937481-10.960592 45.624889 45.624889 0 0 0 10.960593-33.886815 52.148148 52.148148 0 0 0-9.671111-34.152296 39.348148 39.348148 0 0 0-32.047408-11.738075h-26.074074v90.472297h26.074074l1.820445 0.265481z" fill="#4A72EF" p-id="3536"></path></svg>