<?xml version="1.0" standalone="no"?><!DOCTYPE svg PUBLIC "-//W3C//DTD SVG 1.1//EN" "http://www.w3.org/Graphics/SVG/1.1/DTD/svg11.dtd"><svg t="1623830717990" class="icon" viewBox="0 0 1024 1024" version="1.1" xmlns="http://www.w3.org/2000/svg" p-id="4431" xmlns:xlink="http://www.w3.org/1999/xlink" width="200" height="200"><defs><style type="text/css"></style></defs><path d="M512 512m-512 0a512 512 0 1 0 1024 0 512 512 0 1 0-1024 0Z" fill="#666666" opacity=".06" p-id="4432"></path><path d="M293.413926 481.659259c0 27.173926 22.129778 49.777778 48.658963 49.777778 26.548148 0 48.696889-22.71763 48.696889-49.777778 4.437333-31.668148-22.129778-49.777778-48.696889-49.777778s-48.658963 22.509037-48.658963 49.777778z m462.791111-115.825778c-17.692444-0.113778-30.871704 13.425778-30.871704 27.060149 4.437333 13.558519 17.692444 27.117037 30.985482 27.117037 17.711407 0 31.004444-13.558519 31.004444-27.117037 0-13.577481-13.406815-27.173926-31.118222-27.173926v0.113777z m-135.092148 22.414223c26.567111 0 48.696889-22.755556 48.696889-49.777778s-22.129778-49.777778-48.696889-49.777778-48.658963 22.755556-48.658963 49.777778c-4.437333 27.022222 17.692444 49.682963 48.658963 49.682963v0.094815z m-202.808889 13.577481c22.129778 0 44.259556-18.090667 44.259556-40.732444 0-22.641778-17.711407-40.846222-44.259556-40.846222-22.129778 0-44.259556 18.10963-44.259556 40.732444 0 22.603852 17.692444 40.732444 44.259556 40.732444v0.113778z m219.363556 116.811852c0 22.755556 17.73037 40.732444 44.259555 40.732444 22.129778 0 44.259556-18.10963 44.259556-40.732444 0-22.603852-17.692444-40.732444-44.259556-40.732444-21.997037-0.056889-44.259556 17.976889-44.259555 40.732444z m-109.871408-3.716741c22.129778 0 35.403852-18.090667 35.403852-36.219259 0-18.10963-17.692444-36.181333-35.403852-36.181333-22.129778 0-35.422815 18.090667-35.422815 36.181333s17.73037 36.16237 35.422815 36.16237v0.056889z m218.415408 77.425778c-4.740741 0-9.519407 0-11.889778 2.408296-95.288889 68.039111-181.077333 19.456-183.428741 17.066667-178.669037-111.881481-297.718519 7.168-297.718518 7.168a12.705185 12.705185 0 0 0-4.759704 9.728 18.394074 18.394074 0 0 0 4.740741 9.728c4.778667 7.281778 14.222222 4.873481 21.447111 0 2.389333-4.854519 100.02963-99.555556 257.289481-2.408296 2.37037 2.408296 40.504889 24.272593 95.288889 24.272592 35.726222 0 80.971852-9.709037 126.255407-41.320296a18.318222 18.318222 0 0 0 2.370371-21.845333 12.212148 12.212148 0 0 0-9.595259-4.854519v0.056889zM276.48 365.530074a35.802074 35.802074 0 0 0 35.403852-36.181333 35.84 35.84 0 0 0-35.384889-36.276148 35.84 35.84 0 0 0-35.403852 36.219259 35.783111 35.783111 0 0 0 35.384889 36.219259z m33.336889 327.528296H269.653333v116.622223h27.534223v-38.627556h13.368888c24.158815 0 45.226667-12.250074 45.226667-40.011852 0-28.880593-20.764444-37.982815-45.985185-37.982815z m-0.625778 55.978667h-11.984592v-33.848889h11.245037c13.217185 0 20.574815 4.077037 20.574814 15.853037 0 11.757037-6.447407 18.014815-19.835259 18.014815z m127.393185-5.688889c-2.161778 6.750815-4.001185 14.222222-6.314666 21.333333h-0.739556c-2.123852-7.205926-3.982222-14.601481-6.276741-21.333333l-18.147555-50.365629H375.466667v116.622222h24.462222v-39.80326a392.533333 392.533333 0 0 0-3.527111-40.504888h0.625778l9.216 27.932444 15.549629 42.666667h15.056593l15.397926-42.666667 9.519407-27.932444h0.625778c-1.877333 13.425778-3.034074 26.94637-3.527111 40.504888v40.011852h25.069037v-116.622222h-29.847704l-17.521778 50.157037z m106.723556 44.487111c17.559704-18.014815 34.455704-40.163556 34.455704-60.245333 0-22.300444-15.36-36.712296-37.527704-36.712296-16.308148 0-26.775704 5.935407-38.001778 18.014814l14.942815 15.094519c5.366519-5.973333 11.377778-11.377778 19.361185-11.377778 9.083259 0 14.942815 5.688889 14.942815 16.497778 0 17.066667-19.228444 38.115556-47.843556 64.663704v15.966814h79.378963v-23.514074h-21.105777a157.108148 157.108148 0 0 0-18.583704 1.611852z m74.619259-10.524444a17.370074 17.370074 0 1 0 16.289185 17.256296 16.459852 16.459852 0 0 0-16.440889-17.256296h0.151704z m76.458667-43.614815a28.197926 28.197926 0 0 0-11.832889 2.37037l1.668741-19.911111h40.77037v-23.210666h-64.284444l-2.844445 57.742222 11.96563 8.00237c6.788741-4.380444 9.860741-5.688889 16.156444-5.688889 9.860741 0 16.782222 6.276741 16.782222 18.014815 0 11.757037-6.902519 18.204444-18.014814 18.204445-9.064296 0-17.066667-4.854519-23.514074-11.112297l-12.686223 17.730371a54.044444 54.044444 0 0 0 39.992889 16.175407c21.997037 0 41.396148-15.208296 41.396148-41.434074 0-25.258667-16.327111-36.864-35.707259-36.864h0.151704z" fill="#666666" p-id="4433"></path></svg>