<?xml version="1.0" standalone="no"?><!DOCTYPE svg PUBLIC "-//W3C//DTD SVG 1.1//EN" "http://www.w3.org/Graphics/SVG/1.1/DTD/svg11.dtd"><svg t="1623830708989" class="icon" viewBox="0 0 1024 1024" version="1.1" xmlns="http://www.w3.org/2000/svg" p-id="3918" xmlns:xlink="http://www.w3.org/1999/xlink" width="200" height="200"><defs><style type="text/css"></style></defs><path d="M512 512m-512 0a512 512 0 1 0 1024 0 512 512 0 1 0-1024 0Z" fill="#F24750" opacity=".06" p-id="3919"></path><path d="M363.19763 410.81363l1.137777 1.137777c-0.094815 1.782519-0.549926 3.451259-0.549926 5.30963a96.142222 96.142222 0 0 0 22.110815 60.984889l-0.208592 0.18963 2.161777 2.218666c3.034074 3.470222 6.276741 6.731852 9.784889 9.784889l105.946074 105.965037v0.417185c2.218667 2.787556 5.632 7.073185 7.300741 9.291852 0.341333 0.398222 0.70163 0.758519 0.967111 1.21363 0.056889 0.037926 0.132741 0.132741 0.132741 0.189629l2.427259 3.716741c5.347556 8.931556 8.533333 19.304296 8.533334 30.530371 0 17.559704-7.850667 33.052444-19.949037 44.013037l0.189629 0.113777-68.608 66.048c0.208593-2.654815 0.796444-5.195852 0.796445-7.907555 0-29.961481-13.899852-56.452741-35.214223-74.277926l-78.715259-78.715259-26.339555-24.424297 0.189629-0.208592a61.098667 61.098667 0 0 1-19.095703-44.107852 60.681481 60.681481 0 0 1 17.54074-42.363259 5.461333 5.461333 0 0 0-0.246518-0.208593l48.128-47.331556 21.579852-21.541925v-0.037926z m156.197926-64.436149l0.853333 0.872297c-0.037926 1.327407-0.379259 2.597926-0.379259 3.982222 0 17.483852 6.390519 33.355852 16.630518 45.947259l-0.170667 0.151704 1.649778 1.668741c2.294519 2.616889 4.721778 5.063111 7.395556 7.338666l79.815111 79.853037v0.322371c1.668741 2.123852 4.247704 5.328593 5.499259 7.016296 0.265481 0.32237 0.530963 0.606815 0.720593 0.910222l0.094815 0.132741c5.157926 7.300741 8.267852 16.156444 8.267851 25.827556 0 13.255111-5.897481 24.936296-15.018666 33.166222l0.151703 0.113778-51.712 49.720888c0.151704-2.010074 0.587852-3.944296 0.587852-5.973333a72.798815 72.798815 0 0 0-26.510222-55.940741l-59.354074-59.354074-19.816296-18.375111 0.13274-0.189629a46.08 46.08 0 0 1-14.373925-33.261037c0-12.47763 5.176889-23.589926 13.236148-31.93363l-0.18963-0.113778 36.276148-35.688296 16.213334-16.194371zM648.438519 265.481481l0.663703 0.644741c-0.037926 1.024-0.284444 2.010074-0.284444 3.034074 0 13.293037 4.835556 25.296593 12.648296 34.891852l-0.151704 0.094815 1.232593 1.289481c1.744593 1.972148 3.584 3.811556 5.594074 5.575112l60.60563 60.586666-0.018963 0.246519c1.289481 1.592889 3.223704 4.039111 4.190815 5.309629l0.549925 0.70163 0.056889 0.075852c3.925333 5.575111 6.276741 12.288 6.276741 19.626667 0 10.05037-4.475259 18.925037-11.396741 25.163851l0.113778 0.075852-39.253333 37.736297c0.151704-1.517037 0.436148-2.977185 0.436148-4.513186 0-17.142519-7.926519-32.274963-20.100741-42.477037l-45.037037-45.018074-15.037629-13.956741a35.858963 35.858963 0 0 1-10.808889-25.41037c0-9.481481 3.925333-17.863111 10.05037-24.215704a2.332444 2.332444 0 0 0-0.151704-0.075851l27.496297-27.117037 12.325926-12.269038z" fill="#F24750" p-id="3920"></path></svg>