<?xml version="1.0" standalone="no"?><!DOCTYPE svg PUBLIC "-//W3C//DTD SVG 1.1//EN" "http://www.w3.org/Graphics/SVG/1.1/DTD/svg11.dtd"><svg t="1623830634158" class="icon" viewBox="0 0 1024 1024" version="1.1" xmlns="http://www.w3.org/2000/svg" p-id="3148" xmlns:xlink="http://www.w3.org/1999/xlink" width="200" height="200"><defs><style type="text/css"></style></defs><path d="M512 512m-512 0a512 512 0 1 0 1024 0 512 512 0 1 0-1024 0Z" fill="#F39745" opacity=".06" p-id="3149"></path><path d="M626.688 384.208593c16.213333 0 29.354667 13.141333 29.354667 29.354666v234.799408a29.354667 29.354667 0 1 1-58.709334 0V413.563259c0-16.213333 13.141333-29.354667 29.354667-29.354666z m-234.799407 0c16.213333 0 29.354667 13.141333 29.354666 29.354666v234.799408a29.354667 29.354667 0 1 1-58.69037 0V413.563259c0-16.213333 13.141333-29.354667 29.335704-29.354666z m-117.380741 88.045037c16.213333 0 29.37363 13.141333 29.373629 29.354666v58.709334a29.354667 29.354667 0 0 1-58.709333 0v-58.709334c0-16.213333 13.141333-29.354667 29.354667-29.354666z m469.560889 0c16.213333 0 29.354667 13.141333 29.354666 29.354666v58.709334a29.354667 29.354667 0 1 1-58.709333 0v-58.709334c0-16.213333 13.141333-29.354667 29.354667-29.354666zM535.021037 724.195556V337.73037a29.354667 29.354667 0 1 0-58.69037 0v386.465186a29.354667 29.354667 0 1 0 58.69037 0z" fill="#FD9A3F" p-id="3150"></path></svg>