<?xml version="1.0" standalone="no"?><!DOCTYPE svg PUBLIC "-//W3C//DTD SVG 1.1//EN" "http://www.w3.org/Graphics/SVG/1.1/DTD/svg11.dtd"><svg t="1623830720773" class="icon" viewBox="0 0 1024 1024" version="1.1" xmlns="http://www.w3.org/2000/svg" p-id="4559" xmlns:xlink="http://www.w3.org/1999/xlink" width="200" height="200"><defs><style type="text/css"></style></defs><path d="M512 512m-512 0a512 512 0 1 0 1024 0 512 512 0 1 0-1024 0Z" fill="#F24750" opacity=".06" p-id="4560"></path><path d="M466.735407 564.717037v-125.307259h50.801778v125.326222c30.606222 10.258963 52.868741 38.343111 52.868741 70.523259 0 41.092741-35.479704 74.638222-78.620445 74.638222-43.121778 0-77.918815-33.564444-77.918814-74.638222 0-32.862815 22.262519-60.946963 52.86874-70.542222z m102.286223-26.699852c31.288889 22.603852 50.782815 57.53363 50.782814 97.242074 0 67.109926-59.145481 123.259259-129.403259 123.25926C419.441778 758.518519 360.296296 702.369185 360.296296 635.259259c0-41.092741 19.474963-74.638222 50.782815-97.242074V340.119704c0-41.092741 35.479704-74.638222 78.620445-74.638223s78.620444 33.564444 78.620444 74.638223v197.897481h0.70163z m-25.751704-197.897481c0-28.065185-23.646815-48.621037-50.782815-48.621037-27.83763 0-50.782815 22.603852-50.782815 48.621037v210.906074c-31.307852 16.440889-51.484444 48.621037-51.484444 84.233481 0 54.101333 47.312593 98.607407 104.353185 98.607408 57.059556 0 103.670519-44.506074 103.670519-98.607408 0-35.612444-21.579852-67.109926-50.801778-84.233481-4.171852 0-4.171852-210.906074-4.171852-210.906074z m93.923555 17.806222c-18.773333 0-34.076444-15.056593-34.076444-33.564445 0-18.469926 15.303111-33.545481 34.076444-33.545481 18.773333 0 34.095407 15.075556 34.095408 33.564444s-15.303111 33.545481-34.095408 33.545482z m0-46.573037a13.103407 13.103407 0 0 0-13.217185 13.027555c0 7.528296 5.575111 13.008593 13.217185 13.008593 7.661037 0 13.217185-5.499259 13.217186-13.008593a13.103407 13.103407 0 0 0-13.217186-13.027555z" fill="#F24750" p-id="4561"></path></svg>