<?xml version="1.0" standalone="no"?><!DOCTYPE svg PUBLIC "-//W3C//DTD SVG 1.1//EN" "http://www.w3.org/Graphics/SVG/1.1/DTD/svg11.dtd"><svg t="1623830614773" class="icon" viewBox="0 0 1024 1024" version="1.1" xmlns="http://www.w3.org/2000/svg" p-id="2636" xmlns:xlink="http://www.w3.org/1999/xlink" width="200" height="200"><defs><style type="text/css"></style></defs><path d="M512 512m-512 0a512 512 0 1 0 1024 0 512 512 0 1 0-1024 0Z" fill="#666666" opacity=".06" p-id="2637"></path><path d="M601.92237 618.856296c47.786667 0 70.219852 27.780741 70.219852 86.774519 0 58.519704-22.433185 86.319407-70.219852 86.319407-46.800593 0-69.726815-28.292741-69.726814-86.319407 0-58.500741 22.926222-86.774519 69.726814-86.774519z m152.120889 0c10.733037 0 21.940148 0.967111 33.640297 3.887408v30.72a188.776296 188.776296 0 0 0-27.306667-2.42726c-24.462222 0-33.943704 9.53837-34.569482 49.682963l-0.037926 4.437334c0 43.880296 8.779852 54.120296 34.133334 54.120296 9.746963 0 19.019852-0.986074 27.780741-2.920296v30.226963c-6.33363 2.920296-19.986963 4.873481-33.14726 4.873481-45.833481 0-69.233778-27.306667-69.233777-86.300444s23.893333-86.300444 68.74074-86.300445z m-373.475555 2.42726v33.166222h-38.513778v135.054222h-38.532741v-135.054222h-38.494815v-33.166222h115.541334z m40.96 0l25.827555 98.986666 6.352593 35.100445h3.413333l6.33363-35.100445 25.353481-98.986666h37.546667l-43.880296 168.201481h-54.120297l-44.86637-168.201481h38.039704z m180.413629 29.752888c-21.143704 0-29.165037 13.103407-29.714963 50.213926l-0.037926 4.380445c0 39.992889 7.793778 54.120296 29.752889 54.120296 19.209481 0 27.685926-10.031407 29.714963-38.381037l0.37926-7.471407 0.094814-4.020148 0.037926-4.247704c0-40.96-7.319704-54.613333-30.245926-54.613334z m-83.057777-120.832a26.586074 26.586074 0 1 1 0 53.191112 26.586074 26.586074 0 0 1 0-53.191112z m-41.111704 17.711408v17.73037h-212.764445v-17.711407h212.764445z m301.397333 0v17.73037H566.423704v-17.711407h212.764444z m-374.063407-288.047408a14.089481 14.089481 0 0 1-9.803852 16.877037l-8.722963 2.597926-10.202074 3.223704-11.245037 3.792593c-5.802667 2.010074-11.851852 4.228741-17.882074 6.599111-15.227259 5.992296-30.378667 13.084444-40.903111 20.062815-6.504296 4.28563-10.42963 8.495407-12.496593 11.207111l-1.194667 1.744592-0.568888 1.042963-0.056889 0.37926 0.227555 0.83437c0.246519 0.606815 0.739556 1.517037 1.706667 2.806518 3.223704 3.792593 6.902519 7.149037 10.960592 9.974519 5.082074 3.754667 11.377778 7.661037 18.375112 11.700148l10.88474 6.125037 13.634371 7.395556c14.829037 7.983407 29.866667 16.099556 42.173629 25.125926 12.913778 9.519407 25.088 20.385185 25.410371 37.376 0.265481 16.914963-11.624296 28.387556-24.44326 37.717333-11.624296 8.00237-23.912296 14.923852-36.769185 20.66963l-7.774815 3.299555c-9.40563 4.020148-18.773333 7.585185-27.306666 10.657185l-9.784889 3.413334-12.439704 4.039111a13.274074 13.274074 0 0 1-16.763259-9.291852 14.108444 14.108444 0 0 1 9.443555-17.066667l8.495408-2.768592 9.860741-3.375408c8.704-3.072 18.413037-6.731852 28.065185-10.827852 13.786074-5.575111 26.927407-12.61037 39.272296-20.954074 6.599111-4.816593 10.24-9.329778 11.908741-12.174222l0.910222-1.801481a3.034074 3.034074 0 0 0 0.284444-1.061926c0-1.251556-3.678815-7.888593-14.203259-15.606519-7.850667-5.783704-18.337185-11.927704-29.620148-18.166518l-14.601481-7.964445c-14.487704-7.774815-28.937481-15.54963-40.770371-24.215703-6.352593-4.626963-11.984593-9.557333-16.459852-15.454815a33.640296 33.640296 0 0 1-7.698963-21.826371c0.83437-16.858074 13.330963-27.117037 26.680889-35.896889 13.330963-8.817778 29.620148-16.346074 45.814519-22.66074 3.887407-1.517037 7.774815-2.996148 11.605333-4.399408l11.226074-3.944296c1.820444-0.625778 3.602963-1.232593 5.366519-1.801481l10.05037-3.223704 8.855704-2.711704 3.887407-1.137778a13.312 13.312 0 0 1 16.611556 9.671111z m381.534815 0.094815a13.994667 13.994667 0 0 1-9.765926 16.744297c-16.251259 4.740741-32.312889 10.145185-48.109037 16.251259-15.246222 5.992296-30.39763 13.084444-40.922074 20.062815-5.30963 3.508148-8.912593 6.959407-11.188149 9.595259l-1.801481 2.313481a17.332148 17.332148 0 0 0-1.024 1.611852l-0.303407 0.70163 0.056888 0.512a9.860741 9.860741 0 0 0 1.896297 3.280592c3.223704 3.792593 6.883556 7.149037 10.941629 9.974519 5.082074 3.754667 11.396741 7.661037 18.394074 11.700148l10.884741 6.125037 13.274074 7.205926c14.923852 8.040296 30.075259 16.213333 42.533926 25.315556l2.56 1.915259 5.006222 3.982222c9.728 8.210963 17.578667 17.882074 17.825186 31.478519 0.284444 16.914963-11.624296 28.387556-24.424297 37.717333-13.937778 9.614222-28.880593 17.635556-44.544 23.969185-5.650963 2.408296-11.282963 4.664889-16.725333 6.731852l-10.619259 3.925333-9.765926 3.413334-12.439704 4.039111a13.274074 13.274074 0 0 1-16.744296-9.291852 14.108444 14.108444 0 0 1 9.443555-17.066667l8.476445-2.768592 9.879703-3.375408c8.685037-3.072 18.394074-6.731852 28.065186-10.827852 13.767111-5.575111 26.927407-12.61037 39.253333-20.954074 6.599111-4.816593 10.24-9.329778 11.927704-12.174222l0.910222-1.801481a3.034074 3.034074 0 0 0 0.265481-1.061926c0-1.251556-3.659852-7.888593-14.184296-15.606519-7.888593-5.783704-18.413037-11.927704-29.714963-18.166518l-14.601481-7.964445c-14.487704-7.774815-28.937481-15.54963-40.770371-24.215703-6.352593-4.626963-11.984593-9.557333-16.478815-15.454815a33.564444 33.564444 0 0 1-7.547259-21.826371c0.777481-16.858074 13.179259-27.117037 26.548148-35.896889 14.52563-9.102222 29.88563-16.687407 45.890371-22.66074 5.840593-2.294519 11.662222-4.437333 17.275259-6.428445l10.903704-3.71674 5.157926-1.668741 13.748148-4.247704 3.887407-1.137778a13.349926 13.349926 0 0 1 16.687408 9.746963z m-192.625778 0a13.994667 13.994667 0 0 1-9.765926 16.744297c-16.251259 4.740741-32.312889 10.145185-48.109037 16.251259-15.246222 5.992296-30.39763 13.084444-40.922074 20.062815a55.561481 55.561481 0 0 0-10.619259 8.912592l-1.934223 2.294519-1.213629 1.744592-0.568889 1.042963a0.720593 0.720593 0 0 0-0.075852 0.208593l0.075852 0.493037 0.549926 1.21363c0.303407 0.549926 0.758519 1.232593 1.422222 2.085925 3.204741 3.811556 6.883556 7.168 10.94163 9.993482 5.082074 3.754667 11.396741 7.661037 18.394074 11.700148l10.88474 6.125037 13.255111 7.205926c14.942815 8.040296 30.094222 16.213333 42.552889 25.315556l2.56 1.915259 5.006223 3.982222c9.728 8.210963 17.483852 17.882074 17.73037 31.478519 0.284444 16.914963-11.529481 28.387556-24.348444 37.717333a230.58963 230.58963 0 0 1-44.487112 23.969185c-5.650963 2.408296-11.301926 4.664889-16.763259 6.731852l-10.619259 3.925333-5.025185 1.763556-9.272889 3.128889-7.964445 2.56a13.274074 13.274074 0 0 1-16.763259-9.348741 14.108444 14.108444 0 0 1 9.462519-17.009778l8.495407-2.749629 9.860741-3.375408 5.347555-1.915259 11.207111-4.228741c3.811556-1.479111 7.698963-3.072 11.567408-4.702815a212.195556 212.195556 0 0 0 39.253333-20.954074c9.898667-7.243852 13.141333-13.748148 13.084445-15.037629 0-0.530963-0.625778-1.991111-2.123852-4.058074l-2.23763-2.787556a61.800296 61.800296 0 0 0-9.803852-8.760889c-7.907556-5.783704-18.413037-11.927704-29.714963-18.166518l-14.620444-7.964445c-14.487704-7.774815-28.937481-15.54963-40.751408-24.215703-6.352593-4.626963-11.984593-9.557333-16.478814-15.454815a33.564444 33.564444 0 0 1-7.54726-21.826371c0.777481-16.858074 13.179259-27.117037 26.548149-35.896889 14.506667-9.102222 29.88563-16.687407 45.89037-22.66074 5.840593-2.294519 11.662222-4.437333 17.256296-6.428445l10.922667-3.71674 5.138963-1.668741 13.767111-4.247704 3.887407-1.137778a13.349926 13.349926 0 0 1 16.687408 9.746963z" fill="#666666" p-id="2638"></path></svg>